<?xml version="1.0" encoding="UTF-8" standalone="no"?>
<!-- Generator: Adobe Illustrator 13.0.1, SVG Export Plug-In . SVG Version: 6.00 Build 14948)  -->

<svg
   xmlns:dc="http://purl.org/dc/elements/1.1/"
   xmlns:cc="http://creativecommons.org/ns#"
   xmlns:rdf="http://www.w3.org/1999/02/22-rdf-syntax-ns#"
   xmlns:svg="http://www.w3.org/2000/svg"
   xmlns="http://www.w3.org/2000/svg"
   xmlns:xlink="http://www.w3.org/1999/xlink"
   xmlns:sodipodi="http://sodipodi.sourceforge.net/DTD/sodipodi-0.dtd"
   xmlns:inkscape="http://www.inkscape.org/namespaces/inkscape"
   version="1.1"
   id="Livello_1"
   x="0px"
   y="0px"
   width="200.55118"
   height="194.88188"
   viewBox="0 0 -12.047244 265.74803"
   enable-background="new 0 0 256.463 269.104"
   xml:space="preserve"
   inkscape:version="0.47 r22583"
   sodipodi:docname="bubbles.svg"
   style="display:inline"
   inkscape:export-filename="/Users/julien/logomattic.png"
   inkscape:export-xdpi="81.973404"
   inkscape:export-ydpi="81.973404"><title
   id="title4119">Logomattic Logo</title><metadata
   id="metadata3080"><rdf:RDF><cc:Work
       rdf:about=""><dc:format>image/svg+xml</dc:format><dc:type
         rdf:resource="http://purl.org/dc/dcmitype/StillImage" /><dc:title>Logomattic Logo</dc:title><dc:creator><cc:Agent><dc:title>Julien viet</dc:title></cc:Agent></dc:creator><dc:rights><cc:Agent><dc:title>copyright eXo Platform</dc:title></cc:Agent></dc:rights><dc:publisher><cc:Agent><dc:title>eXo Platform</dc:title></cc:Agent></dc:publisher><dc:identifier>www.exoplatform.org</dc:identifier><dc:description>The logomattic project logo</dc:description><dc:contributor><cc:Agent><dc:title>Julien Viet</dc:title></cc:Agent></dc:contributor></cc:Work></rdf:RDF></metadata><defs
   id="defs3078"><linearGradient
     id="linearGradient4176"><stop
       id="stop4178"
       offset="0"
       style="stop-color:#000000;stop-opacity:1;" /><stop
       id="stop4180"
       offset="1"
       style="stop-color:#ffffff;stop-opacity:1;" /></linearGradient><linearGradient
     id="linearGradient4073"><stop
       style="stop-color:#000000;stop-opacity:1;"
       offset="0"
       id="stop4075" /><stop
       style="stop-color:#000000;stop-opacity:0;"
       offset="1"
       id="stop4077" /></linearGradient><linearGradient
     inkscape:collect="always"
     id="linearGradient4028"><stop
       style="stop-color:#000000;stop-opacity:1;"
       offset="0"
       id="stop4030" /><stop
       style="stop-color:#000000;stop-opacity:0;"
       offset="1"
       id="stop4032" /></linearGradient><inkscape:perspective
     sodipodi:type="inkscape:persp3d"
     inkscape:vp_x="0 : 134.552 : 1"
     inkscape:vp_y="0 : 1000 : 0"
     inkscape:vp_z="256.46301 : 134.552 : 1"
     inkscape:persp3d-origin="128.23151 : 89.701335 : 1"
     id="perspective3082" /><linearGradient
     inkscape:collect="always"
     xlink:href="#linearGradient4028"
     id="linearGradient4034"
     x1="52.672287"
     y1="113.74983"
     x2="401.87152"
     y2="113.74983"
     gradientUnits="userSpaceOnUse" /><linearGradient
     inkscape:collect="always"
     xlink:href="#linearGradient4073"
     id="linearGradient4079"
     x1="114.71141"
     y1="141.13715"
     x2="571.26593"
     y2="141.13715"
     gradientUnits="userSpaceOnUse" /><linearGradient
     inkscape:collect="always"
     xlink:href="#SVGID_1_"
     id="linearGradient4142"
     gradientUnits="userSpaceOnUse"
     x1="98.346703"
     y1="14.001"
     x2="98.346703"
     y2="99.334999" /><linearGradient
     inkscape:collect="always"
     xlink:href="#linearGradient4073"
     id="linearGradient4160"
     x1="133.84473"
     y1="269.09137"
     x2="243.50063"
     y2="269.09137"
     gradientUnits="userSpaceOnUse"
     gradientTransform="translate(-482.11533,-16.103578)" /><linearGradient
     inkscape:collect="always"
     xlink:href="#linearGradient4176"
     id="linearGradient4174"
     gradientUnits="userSpaceOnUse"
     gradientTransform="translate(-471.83385,-45.744037)"
     x1="133.84473"
     y1="269.09137"
     x2="243.50063"
     y2="269.09137" /><linearGradient
     inkscape:collect="always"
     xlink:href="#linearGradient4176"
     id="linearGradient4188"
     gradientUnits="userSpaceOnUse"
     gradientTransform="translate(-457.55814,-80.513152)"
     x1="133.84473"
     y1="269.09137"
     x2="243.50063"
     y2="269.09137" /><linearGradient
     inkscape:collect="always"
     xlink:href="#linearGradient4176"
     id="linearGradient4206"
     gradientUnits="userSpaceOnUse"
     gradientTransform="matrix(0.54275612,0,0,0.99999985,-323.91379,-91.182156)"
     x1="133.84473"
     y1="269.09137"
     x2="243.50063"
     y2="269.09137" /><linearGradient
     inkscape:collect="always"
     xlink:href="#linearGradient4176"
     id="linearGradient4209"
     gradientUnits="userSpaceOnUse"
     gradientTransform="matrix(0.54275612,0,0,0.99999985,-315.02541,-214.27754)"
     x1="133.84473"
     y1="269.09137"
     x2="243.50063"
     y2="269.09137" /><linearGradient
     inkscape:collect="always"
     xlink:href="#linearGradient4176"
     id="linearGradient4423"
     gradientUnits="userSpaceOnUse"
     gradientTransform="matrix(0.54275612,0,0,0.99999985,50.692842,-120.62924)"
     x1="133.84473"
     y1="269.09137"
     x2="243.50063"
     y2="269.09137" /><mask
     maskUnits="userSpaceOnUse"
     id="mask4419"><rect
       transform="matrix(-0.00118278,0.9999993,0.99999994,3.484296e-4,0,0)"
       y="93.231041"
       x="123.33782"
       height="110.46219"
       width="59.516411"
       id="rect4421"
       style="fill:url(#linearGradient4423);fill-opacity:1;fill-rule:nonzero;stroke:none" /></mask><linearGradient
     inkscape:collect="always"
     xlink:href="#linearGradient4176"
     id="linearGradient4429"
     gradientUnits="userSpaceOnUse"
     gradientTransform="matrix(0.54275612,0,0,0.99999985,22.866254,-192.34412)"
     x1="133.84473"
     y1="269.09137"
     x2="243.50063"
     y2="269.09137" /><mask
     maskUnits="userSpaceOnUse"
     id="mask4425"><rect
       style="fill:url(#linearGradient4429);fill-opacity:1;fill-rule:nonzero;stroke:none"
       id="rect4427"
       width="59.516411"
       height="110.46219"
       x="95.511307"
       y="21.516083"
       transform="matrix(-0.00118278,0.9999993,0.99999994,3.484296e-4,0,0)" /></mask><linearGradient
     inkscape:collect="always"
     xlink:href="#SVGID_5_"
     id="linearGradient3055"
     gradientUnits="userSpaceOnUse"
     x1="201.79491"
     y1="81.817398"
     x2="201.79491"
     y2="167.1514" /><linearGradient
     inkscape:collect="always"
     xlink:href="#SVGID_6_"
     id="linearGradient3057"
     gradientUnits="userSpaceOnUse"
     x1="201.7939"
     y1="80.150398"
     x2="201.7939"
     y2="152.8165" /><linearGradient
     inkscape:collect="always"
     xlink:href="#SVGID_3_"
     id="linearGradient3059"
     gradientUnits="userSpaceOnUse"
     x1="54.667999"
     y1="81.817398"
     x2="54.667999"
     y2="167.1514" /><linearGradient
     inkscape:collect="always"
     xlink:href="#SVGID_4_"
     id="linearGradient3061"
     gradientUnits="userSpaceOnUse"
     x1="54.667"
     y1="80.150398"
     x2="54.667"
     y2="152.8165" /></defs><sodipodi:namedview
   pagecolor="#ffffff"
   bordercolor="#666666"
   borderopacity="1"
   objecttolerance="10"
   gridtolerance="10"
   guidetolerance="10"
   inkscape:pageopacity="0"
   inkscape:pageshadow="2"
   inkscape:window-width="1679"
   inkscape:window-height="1071"
   id="namedview3076"
   showgrid="false"
   units="cm"
   inkscape:zoom="1.2402432"
   inkscape:cx="195.32674"
   inkscape:cy="47.038409"
   inkscape:window-x="508"
   inkscape:window-y="104"
   inkscape:window-maximized="0"
   inkscape:current-layer="Livello_1"><inkscape:grid
     type="xygrid"
     id="grid4190"
     empspacing="5"
     visible="true"
     enabled="true"
     snapvisiblegridlinesonly="true" /></sodipodi:namedview>
<g
   id="g2972"
   transform="translate(24.084031,11.291724)"
   style="opacity:0.7">
	<linearGradient
   id="SVGID_1_"
   gradientUnits="userSpaceOnUse"
   x1="98.346703"
   y1="14.001"
   x2="98.346703"
   y2="99.334999">
		<stop
   offset="0"
   style="stop-color:#ffdbc5;stop-opacity:1;"
   id="stop2975" />
		<stop
   offset="1"
   style="stop-color:#f94600;stop-opacity:1;"
   id="stop2977" />
	</linearGradient>
	<circle
   cx="98.347"
   cy="54.667999"
   r="54.667"
   id="circle2979"
   sodipodi:cx="98.347"
   sodipodi:cy="54.667999"
   sodipodi:rx="54.667"
   sodipodi:ry="54.667"
   style="fill:url(#linearGradient4142)"
   d="M 153.014,54.667999 C 153.014,84.85975 128.53875,109.335 98.347,109.335 68.15525,109.335 43.68,84.85975 43.68,54.667999 43.68,24.476249 68.15525,9.9945068e-4 98.347,9.9945068e-4 c 30.19175,0 54.667,24.47524954932 54.667,54.66699954932 z" />
	<linearGradient
   id="SVGID_2_"
   gradientUnits="userSpaceOnUse"
   x1="98.346703"
   y1="12.334"
   x2="98.346703"
   y2="85.000099"
   xlink:href="#SVGID_1_">
		<stop
   offset="0"
   style="stop-color:#FFFFFF"
   id="stop2982" />
		<stop
   offset="1"
   style="stop-color:#ff9553;stop-opacity:1;"
   id="stop2984" />
	</linearGradient>
	<circle
   cx="98.347"
   cy="43.667999"
   r="41.333"
   id="circle2986"
   sodipodi:cx="98.347"
   sodipodi:cy="43.667999"
   sodipodi:rx="41.333"
   sodipodi:ry="41.333"
   style="fill:url(#SVGID_2_);fill-opacity:1"
   d="m 139.68,43.667999 c 0,22.827586 -18.50541,41.333 -41.333,41.333 -22.827586,0 -41.333,-18.505414 -41.333,-41.333 0,-22.827585 18.505414,-41.3329999 41.333,-41.3329999 22.82759,0 41.333,18.5054149 41.333,41.3329999 z" />
	<g
   id="g2988"
   style="opacity:0.50000000000000000">
		<path
   d="m 128.217,24.566 c -1.471,1.495 -2.941,2.989 -4.412,4.482 -6.232,-6.137 -14.717,-10.02 -24.152,-10.276 0.057,-2.096 0.113,-4.193 0.17,-6.289 11.093,0.302 21.066,4.867 28.394,12.083 z"
   id="path2990"
   style="fill:#ffffff" />
		<path
   d="m 140.775,55.723 c -2.098,-0.057 -4.193,-0.113 -6.291,-0.171 0.258,-9.436 -3.158,-18.117 -8.949,-24.676 1.572,-1.387 3.145,-2.774 4.717,-4.162 6.809,7.71 10.824,17.916 10.523,29.009 z"
   id="path2992"
   style="fill:#ffffff" />
		<path
   d="m 132.979,19.728 c -1.121,1.142 -2.244,2.281 -3.367,3.422 -7.676,-7.557 -18.119,-12.336 -29.734,-12.651 0.043,-1.6 0.086,-3.199 0.131,-4.8 12.878,0.349 24.46,5.651 32.97,14.029 z"
   id="path2994"
   style="fill:#ffffff" />
		<path
   d="m 147.559,55.906 c -1.6,-0.042 -3.199,-0.087 -4.799,-0.13 0.316,-11.616 -3.891,-22.305 -11.02,-30.378 1.201,-1.059 2.4,-2.117 3.602,-3.176 7.904,8.953 12.566,20.803 12.217,33.684 z"
   id="path2996"
   style="fill:#ffffff" />
	</g>
</g>
<g
   id="g2998"
   transform="translate(10.400777,-24.056767)"
   style="opacity:0.7">
	<linearGradient
   id="SVGID_3_"
   gradientUnits="userSpaceOnUse"
   x1="54.667999"
   y1="81.817398"
   x2="54.667999"
   y2="167.1514">
		<stop
   offset="0"
   style="stop-color:#afcbf5;stop-opacity:1;"
   id="stop3001" />
		<stop
   offset="1"
   style="stop-color:#124696;stop-opacity:1;"
   id="stop3003" />
	</linearGradient>
	<circle
   cx="54.667999"
   cy="122.484"
   r="54.667999"
   id="circle3005"
   sodipodi:cx="54.667999"
   sodipodi:cy="122.484"
   sodipodi:rx="54.667999"
   sodipodi:ry="54.667999"
   style="fill:url(#linearGradient3059)"
   d="m 109.336,122.484 c 0,30.1923 -24.475698,54.668 -54.668001,54.668 C 24.475697,177.152 0,152.6763 0,122.484 0,92.291699 24.475697,67.816002 54.667999,67.816002 c 30.192303,0 54.668001,24.475697 54.668001,54.667998 z" />
	<linearGradient
   id="SVGID_4_"
   gradientUnits="userSpaceOnUse"
   x1="54.667"
   y1="80.150398"
   x2="54.667"
   y2="152.8165">
		<stop
   offset="0"
   style="stop-color:#ffffff;stop-opacity:1;"
   id="stop3008" />
		<stop
   offset="1"
   style="stop-color:#196cd3;stop-opacity:1;"
   id="stop3010" />
	</linearGradient>
	<circle
   cx="54.667"
   cy="111.484"
   r="41.333"
   id="circle3012"
   sodipodi:cx="54.667"
   sodipodi:cy="111.484"
   sodipodi:rx="41.333"
   sodipodi:ry="41.333"
   style="fill:url(#linearGradient3061)"
   d="m 96,111.484 c 0,22.82759 -18.505415,41.333 -41.333,41.333 -22.827586,0 -41.333,-18.50541 -41.333,-41.333 0,-22.827585 18.505414,-41.332999 41.333,-41.332999 22.827585,0 41.333,18.505414 41.333,41.332999 z" />
	<g
   id="g3014"
   style="opacity:0.50000000000000000">
		<path
   d="m 84.537,92.383 c -1.471,1.495 -2.941,2.989 -4.412,4.482 -6.232,-6.137 -14.717,-10.02 -24.152,-10.276 0.057,-2.096 0.113,-4.193 0.17,-6.289 11.093,0.302 21.066,4.866 28.394,12.083 z"
   id="path3016"
   style="fill:#ffffff" />
		<path
   d="m 97.096,123.539 c -2.098,-0.057 -4.193,-0.113 -6.291,-0.171 0.258,-9.436 -3.158,-18.117 -8.949,-24.676 1.572,-1.387 3.145,-2.774 4.717,-4.162 6.808,7.71 10.823,17.916 10.523,29.009 z"
   id="path3018"
   style="fill:#ffffff" />
		<path
   d="m 89.299,87.544 c -1.121,1.142 -2.244,2.281 -3.367,3.422 C 78.256,83.409 67.813,78.63 56.198,78.315 c 0.043,-1.6 0.086,-3.199 0.131,-4.8 12.878,0.349 24.46,5.651 32.97,14.029 z"
   id="path3020"
   style="fill:#ffffff" />
		<path
   d="m 103.879,123.723 c -1.6,-0.042 -3.199,-0.087 -4.799,-0.13 0.316,-11.616 -3.891,-22.305 -11.02,-30.378 1.201,-1.059 2.4,-2.117 3.602,-3.176 7.904,8.952 12.567,20.803 12.217,33.684 z"
   id="path3022"
   style="fill:#ffffff" />
	</g>
</g>
<g
   id="g3024"
   transform="translate(-65.997395,3.3097242)"
   style="opacity:0.7">
	<linearGradient
   id="SVGID_5_"
   gradientUnits="userSpaceOnUse"
   x1="201.79491"
   y1="81.817398"
   x2="201.79491"
   y2="167.1514">
		<stop
   offset="0"
   style="stop-color:#d2e99b;stop-opacity:1;"
   id="stop3027" />
		<stop
   offset="1"
   style="stop-color:#4f9922;stop-opacity:1;"
   id="stop3029" />
	</linearGradient>
	<circle
   cx="201.795"
   cy="122.484"
   r="54.667999"
   id="circle3031"
   sodipodi:cx="201.795"
   sodipodi:cy="122.484"
   sodipodi:rx="54.667999"
   sodipodi:ry="54.667999"
   style="fill:url(#linearGradient3055)"
   d="m 256.463,122.484 c 0,30.1923 -24.4757,54.668 -54.668,54.668 -30.1923,0 -54.668,-24.4757 -54.668,-54.668 0,-30.192301 24.4757,-54.667998 54.668,-54.667998 30.1923,0 54.668,24.475697 54.668,54.667998 z" />
	<linearGradient
   id="SVGID_6_"
   gradientUnits="userSpaceOnUse"
   x1="201.7939"
   y1="80.150398"
   x2="201.7939"
   y2="152.8165">
		<stop
   offset="0"
   style="stop-color:#ffffff;stop-opacity:1;"
   id="stop3034" />
		<stop
   offset="1"
   style="stop-color:#93c82d;stop-opacity:1;"
   id="stop3036" />
	</linearGradient>
	<circle
   cx="201.79401"
   cy="111.484"
   r="41.333"
   id="circle3038"
   sodipodi:cx="201.79401"
   sodipodi:cy="111.484"
   sodipodi:rx="41.333"
   sodipodi:ry="41.333"
   style="fill:url(#linearGradient3057)"
   d="m 243.12701,111.484 c 0,22.82759 -18.50542,41.333 -41.333,41.333 -22.82759,0 -41.333,-18.50541 -41.333,-41.333 0,-22.827585 18.50541,-41.332999 41.333,-41.332999 22.82758,0 41.333,18.505414 41.333,41.332999 z" />
	<g
   id="g3040"
   style="opacity:0.50000000000000000">
		<path
   d="m 231.664,92.383 c -1.471,1.495 -2.941,2.989 -4.412,4.482 -6.232,-6.137 -14.717,-10.02 -24.152,-10.276 0.057,-2.096 0.113,-4.193 0.17,-6.289 11.093,0.302 21.066,4.866 28.394,12.083 z"
   id="path3042"
   style="fill:#ffffff" />
		<path
   d="m 244.223,123.539 c -2.098,-0.057 -4.193,-0.113 -6.291,-0.171 0.258,-9.436 -3.158,-18.117 -8.949,-24.676 1.572,-1.387 3.145,-2.774 4.717,-4.162 6.808,7.71 10.823,17.916 10.523,29.009 z"
   id="path3044"
   style="fill:#ffffff" />
		<path
   d="m 236.426,87.544 c -1.121,1.142 -2.244,2.281 -3.367,3.422 -7.676,-7.557 -18.119,-12.336 -29.734,-12.651 0.043,-1.6 0.086,-3.199 0.131,-4.8 12.878,0.349 24.46,5.651 32.97,14.029 z"
   id="path3046"
   style="fill:#ffffff" />
		<path
   d="m 251.006,123.723 c -1.6,-0.042 -3.199,-0.087 -4.799,-0.13 0.316,-11.616 -3.891,-22.305 -11.02,-30.378 1.201,-1.059 2.4,-2.117 3.602,-3.176 7.904,8.952 12.566,20.803 12.217,33.684 z"
   id="path3048"
   style="fill:#ffffff" />
	</g>
</g>



</svg>